<svg width="24" height="24" viewBox="0 0 24 24" fill="none" xmlns="http://www.w3.org/2000/svg">
<g clip-path="url(#clip0_347_2044)">
<path d="M12.5 -1C9.18591 -0.996361 6.0086 0.321769 3.66518 2.66518C1.32177 5.0086 0.0036395 8.18591 0 11.5V22.0413C0.000661516 22.5605 0.207242 23.0584 0.574435 23.4256C0.941629 23.7928 1.43946 23.9993 1.95875 24H12.5C15.8152 24 18.9946 22.683 21.3388 20.3388C23.683 17.9946 25 14.8152 25 11.5C25 8.18479 23.683 5.00537 21.3388 2.66117C18.9946 0.316961 15.8152 -1 12.5 -1ZM7 13.5C6.70333 13.5 6.41332 13.412 6.16665 13.2472C5.91997 13.0824 5.72771 12.8481 5.61418 12.574C5.50065 12.2999 5.47094 11.9983 5.52882 11.7074C5.5867 11.4164 5.72956 11.1491 5.93934 10.9393C6.14912 10.7296 6.41639 10.5867 6.70736 10.5288C6.99834 10.4709 7.29994 10.5006 7.57403 10.6142C7.84811 10.7277 8.08238 10.92 8.2472 11.1666C8.41203 11.4133 8.5 11.7033 8.5 12C8.5 12.3978 8.34196 12.7794 8.06066 13.0607C7.77936 13.342 7.39782 13.5 7 13.5ZM12.5 13.5C12.2033 13.5 11.9133 13.412 11.6666 13.2472C11.42 13.0824 11.2277 12.8481 11.1142 12.574C11.0006 12.2999 10.9709 11.9983 11.0288 11.7074C11.0867 11.4164 11.2296 11.1491 11.4393 10.9393C11.6491 10.7296 11.9164 10.5867 12.2074 10.5288C12.4983 10.4709 12.7999 10.5006 13.074 10.6142C13.3481 10.7277 13.5824 10.92 13.7472 11.1666C13.912 11.4133 14 11.7033 14 12C14 12.3978 13.842 12.7794 13.5607 13.0607C13.2794 13.342 12.8978 13.5 12.5 13.5ZM18 13.5C17.7033 13.5 17.4133 13.412 17.1666 13.2472C16.92 13.0824 16.7277 12.8481 16.6142 12.574C16.5007 12.2999 16.4709 11.9983 16.5288 11.7074C16.5867 11.4164 16.7296 11.1491 16.9393 10.9393C17.1491 10.7296 17.4164 10.5867 17.7074 10.5288C17.9983 10.4709 18.2999 10.5006 18.574 10.6142C18.8481 10.7277 19.0824 10.92 19.2472 11.1666C19.412 11.4133 19.5 11.7033 19.5 12C19.5 12.3978 19.342 12.7794 19.0607 13.0607C18.7794 13.342 18.3978 13.5 18 13.5Z" fill="#0081FB"/>
</g>
<defs>
<clipPath id="clip0_347_2044">
<rect width="24" height="24" rx="12" fill="white"/>
</clipPath>
</defs>
</svg>
