<svg width="25" height="24" viewBox="0 0 25 24" fill="none" xmlns="http://www.w3.org/2000/svg">
<path d="M20.6489 5V23C20.6489 23.2652 20.5436 23.5196 20.356 23.7071C20.1685 23.8946 19.9141 24 19.6489 24H1.64893C1.38371 24 1.12936 23.8946 0.941819 23.7071C0.754283 23.5196 0.648926 23.2652 0.648926 23V5C0.648926 4.73478 0.754283 4.48043 0.941819 4.29289C1.12936 4.10536 1.38371 4 1.64893 4H19.6489C19.9141 4 20.1685 4.10536 20.356 4.29289C20.5436 4.48043 20.6489 4.73478 20.6489 5ZM23.6489 0H5.64893C5.38371 0 5.12936 0.105357 4.94182 0.292893C4.75428 0.48043 4.64893 0.734784 4.64893 1C4.64893 1.26522 4.75428 1.51957 4.94182 1.70711C5.12936 1.89464 5.38371 2 5.64893 2H22.6489V19C22.6489 19.2652 22.7543 19.5196 22.9418 19.7071C23.1294 19.8946 23.3837 20 23.6489 20C23.9141 20 24.1685 19.8946 24.356 19.7071C24.5436 19.5196 24.6489 19.2652 24.6489 19V1C24.6489 0.734784 24.5436 0.48043 24.356 0.292893C24.1685 0.105357 23.9141 0 23.6489 0Z" fill="#C00A3D"/>
</svg>
