<svg width="24" height="24" viewBox="0 0 24 24" fill="none" xmlns="http://www.w3.org/2000/svg">
<g clip-path="url(#clip0_347_2047)">
<path fill-rule="evenodd" clip-rule="evenodd" d="M15.0999 14.359L15.5559 13.906C16.1859 13.28 17.1669 13.151 17.9729 13.589L19.8829 14.628C21.1099 15.295 21.3809 16.93 20.4219 17.883L19.0019 19.295C18.6399 19.655 18.1919 19.917 17.6759 19.965C16.4839 20.076 14.0309 20.016 11.1369 18.322L15.0999 14.359ZM9.18988 8.48298L9.47688 8.19698C10.1839 7.49498 10.2509 6.36698 9.63388 5.54298L8.37388 3.85998C7.60988 2.83998 6.13488 2.70498 5.25988 3.57498L3.68988 5.13498C3.25688 5.56698 2.96688 6.12498 3.00188 6.74498C3.06688 7.88498 3.45488 9.96498 5.15088 12.521L9.18988 8.48298Z" fill="#0081FB"/>
<path opacity="0.6" d="M11.0629 12.4974C8.11688 9.56842 9.18288 8.48942 9.18988 8.48242L5.15088 12.5224C5.81788 13.5264 6.68588 14.6034 7.81488 15.7264C8.95488 16.8604 10.0749 17.7014 11.1369 18.3224L15.0999 14.3604C15.0999 14.3604 14.0179 15.4364 11.0629 12.4984" fill="url(#paint0_linear_347_2047)"/>
</g>
<defs>
<linearGradient id="paint0_linear_347_2047" x1="5.15088" y1="13.4024" x2="15.0999" y2="13.4024" gradientUnits="userSpaceOnUse">
<stop offset="0.511" stop-color="#38B6FF"/>
<stop offset="0.646" stop-color="#CDEDFF"/>
</linearGradient>
<clipPath id="clip0_347_2047">
<rect width="24" height="24" rx="12" fill="white"/>
</clipPath>
</defs>
</svg>
