<svg width="36" height="37" viewBox="0 0 36 37" fill="none" xmlns="http://www.w3.org/2000/svg">
<rect y="0.5" width="36" height="36" rx="18" fill="#FAF5E9"/>
<path d="M25.4775 23.2475C25.4775 23.5175 25.4175 23.795 25.29 24.065C25.1625 24.335 24.9975 24.59 24.78 24.83C24.4125 25.235 24.0075 25.5275 23.55 25.715C23.1 25.9025 22.6125 26 22.0875 26C21.3225 26 20.505 25.82 19.6425 25.4525C18.78 25.085 17.9175 24.59 17.0625 23.9675C16.2 23.3375 15.3825 22.64 14.6025 21.8675C13.83 21.0875 13.1325 20.27 12.51 19.415C11.895 18.56 11.4 17.705 11.04 16.8575C10.68 16.0025 10.5 15.185 10.5 14.405C10.5 13.895 10.59 13.4075 10.77 12.9575C10.95 12.5 11.235 12.08 11.6325 11.705C12.1125 11.2325 12.6375 11 13.1925 11C13.4025 11 13.6125 11.045 13.8 11.135C13.995 11.225 14.1675 11.36 14.3025 11.555L16.0425 14.0075C16.1775 14.195 16.275 14.3675 16.3425 14.5325C16.41 14.69 16.4475 14.8475 16.4475 14.99C16.4475 15.17 16.395 15.35 16.29 15.5225C16.1925 15.695 16.05 15.875 15.87 16.055L15.3 16.6475C15.2175 16.73 15.18 16.8275 15.18 16.9475C15.18 17.0075 15.1875 17.06 15.2025 17.12C15.225 17.18 15.2475 17.225 15.2625 17.27C15.3975 17.5175 15.63 17.84 15.96 18.23C16.2975 18.62 16.6575 19.0175 17.0475 19.415C17.4525 19.8125 17.8425 20.18 18.24 20.5175C18.63 20.8475 18.9525 21.0725 19.2075 21.2075C19.245 21.2225 19.29 21.245 19.3425 21.2675C19.4025 21.29 19.4625 21.2975 19.53 21.2975C19.6575 21.2975 19.755 21.2525 19.8375 21.17L20.4075 20.6075C20.595 20.42 20.775 20.2775 20.9475 20.1875C21.12 20.0825 21.2925 20.03 21.48 20.03C21.6225 20.03 21.7725 20.06 21.9375 20.1275C22.1025 20.195 22.275 20.2925 22.4625 20.42L24.945 22.1825C25.14 22.3175 25.275 22.475 25.3575 22.6625C25.4325 22.85 25.4775 23.0375 25.4775 23.2475Z" stroke="#B8820C" stroke-width="1.5" stroke-miterlimit="10"/>
</svg>
